# xmcd
# 
# Track frame offsets:
#     150
#     14609
#     32628
#     43793
# 
# Disc length: 812
# 
# Revision: 0
# Processed by: cddbd v1.5.2PL0 Copyright (c) Steve Scherf et al.
# Submitted via: BonkEnc v1.0.8
# 
DISCID=2c032a04
DTITLE=Matthau Mikojan - Chasing Ghosts EP
DYEAR=2008
DGENRE=Rock
TTITLE0=Chasing Ghosts
TTITLE1=Shine A Light
TTITLE2=What A Day
TTITLE3=No Hard Feelings (remix)
EXTD=
EXTT0=
EXTT1=
EXTT2=
EXTT3=
PLAYORDER=
